# File created by Blade
# Date/Time:  Wed Jan 21 15:23:43 2015
# Frame Rate: 120.000 fps
#------------------------------------------------------
:FULLY-SPECIFIED
:DEGREES
720
root 10.186714 27.911599 -17.702229 -162.731878 2.598544 -193.641605
Spine 2.308939 2.442783 -16.523111
Head -17.522295 -3.537419 2.176294
LeftShoulder -4.195539 -26.573999 -0.745660
LeftArm -16.758134 47.023363 -82.413102
LeftForeArm 29.325134 -0.000000 50.718693
LeftHand 1.224803 -0.000000 -2.944487
LeftHandThumb1 -26.253704 0.000000 33.147579
RightShoulder -2.923777 -9.800579 5.307350
RightArm 17.773737 -31.823031 63.243387
RightForeArm -31.102371 -0.000000 24.759324
RightHand 4.362259 -0.000000 5.447179
RightHandThumb1 -24.326973 -0.000000 -32.862282
LeftUpLeg -54.935015 10.133661 -21.152606
LeftLeg 72.833804 -0.000000 -0.000000
LeftFoot -55.136989 19.175742 -16.257931
LeftToeBase 25.858845 -0.000000 -0.000000
RightUpLeg -19.814029 -41.854961 -40.497075
RightLeg -4.224428 -0.000000 0.000000
RightFoot 6.646434 -22.613347 16.234214
RightToeBase 31.710509 -0.000000 -0.000000
721
root 10.190526 27.917276 -17.691475 -162.651149 2.540810 -193.672405
Spine 2.321116 2.397175 -16.555631
Head -17.711056 -3.546401 2.174889
LeftShoulder -4.248608 -26.578467 -0.704573
LeftArm -16.785028 47.041721 -82.416459
LeftForeArm 29.148345 -0.000000 50.806502
LeftHand 1.151193 -0.000000 -2.845841
LeftHandThumb1 -26.253704 0.000000 33.147579
RightShoulder -2.901639 -9.800972 5.306893
RightArm 17.806185 -31.851878 63.225299
RightForeArm -31.107462 -0.000000 24.743101
RightHand 4.362270 0.000000 5.419155
RightHandThumb1 -24.326973 -0.000000 -32.862282
LeftUpLeg -55.003238 10.117507 -21.192830
LeftLeg 72.791111 -0.000000 -0.000000
LeftFoot -55.063066 19.122093 -16.193194
LeftToeBase 25.850150 -0.000000 -0.000000
RightUpLeg -19.836251 -41.911603 -40.495228
RightLeg -4.233910 -0.000000 0.000000
RightFoot 6.628434 -22.624261 16.225422
RightToeBase 31.712316 -0.000000 -0.000000
722
root 10.194173 27.920338 -17.683340 -162.603576 2.500800 -193.676732
Spine 2.353931 2.438580 -16.544473
Head -17.853945 -3.604190 2.133907
LeftShoulder -4.237716 -26.534650 -0.709673
LeftArm -16.721773 47.025764 -82.360191
LeftForeArm 29.145645 -0.000000 50.898249
LeftHand 0.997300 -0.000000 -2.830855
LeftHandThumb1 -26.253704 0.000000 33.147579
RightShoulder -2.884565 -9.784457 5.280602
RightArm 17.725481 -31.801121 63.275473
RightForeArm -31.173233 -0.000000 24.811746
RightHand 4.412789 -0.000000 5.509173
RightHandThumb1 -24.326973 -0.000000 -32.862282
LeftUpLeg -55.054673 10.143646 -21.212787
LeftLeg 72.775673 -0.000000 -0.000000
LeftFoot -55.020130 19.053340 -16.144157
LeftToeBase 25.845867 -0.000000 -0.000000
RightUpLeg -19.846019 -41.953223 -40.474119
RightLeg -4.248418 -0.000000 0.000000
RightFoot 6.626178 -22.619952 16.212140
RightToeBase 31.722567 -0.000000 -0.000000
723
root 10.198186 27.924815 -17.670723 -162.516429 2.464114 -193.675223
Spine 2.357454 2.440466 -16.532428
Head -18.011418 -3.642511 2.101748
LeftShoulder -4.238529 -26.555749 -0.699704
LeftArm -16.790977 46.978675 -82.354172
LeftForeArm 29.223889 -0.000000 51.030411
LeftHand 0.917080 -0.000000 -2.635448
LeftHandThumb1 -26.253704 0.000000 33.147579
RightShoulder -2.873218 -9.757709 5.265249
RightArm 17.718898 -31.860165 63.258192
RightForeArm -31.135491 0.000000 24.827491
RightHand 4.418369 -0.000000 5.534551
RightHandThumb1 -24.326973 -0.000000 -32.862282
LeftUpLeg -55.156695 10.136841 -21.231858
LeftLeg 72.762816 -0.000000 -0.000000
LeftFoot -54.969302 18.994494 -16.129375
LeftToeBase 25.898376 -0.000000 -0.000000
RightUpLeg -19.919448 -42.020364 -40.403293
RightLeg -4.256417 -0.000000 0.000000
RightFoot 6.602627 -22.599639 16.233503
RightToeBase 31.784093 -0.000000 -0.000000
724
root 10.199470 27.927337 -17.659893 -162.463494 2.428172 -193.692078
Spine 2.399296 2.463459 -16.530550
Head -18.150433 -3.695823 2.062598
LeftShoulder -4.209515 -26.524949 -0.707480
LeftArm -16.770075 46.951561 -82.283130
LeftForeArm 29.166501 -0.000000 51.157451
LeftHand 0.962489 -0.000000 -2.562996
LeftHandThumb1 -26.253704 0.000000 33.147579
RightShoulder -2.859892 -9.730071 5.230135
RightArm 17.719452 -31.921589 63.262319
RightForeArm -31.064325 0.000000 24.802272
RightHand 4.492621 -0.000000 5.530453
RightHandThumb1 -24.326973 -0.000000 -32.862282
LeftUpLeg -55.213280 10.238182 -21.293587
LeftLeg 72.725103 -0.000000 -0.000000
LeftFoot -54.922598 18.939671 -15.965782
LeftToeBase 25.925087 -0.000000 -0.000000
RightUpLeg -19.925291 -42.037601 -40.408467
RightLeg -4.280322 -0.000000 0.000000
RightFoot 6.597798 -22.601617 16.232865
RightToeBase 31.779058 -0.000000 -0.000000
725
root 10.200384 27.929149 -17.649370 -162.409943 2.404564 -193.707252
Spine 2.445501 2.489078 -16.532632
Head -18.301790 -3.726177 2.036982
LeftShoulder -4.206027 -26.521242 -0.692051
LeftArm -16.771587 46.951711 -82.252271
LeftForeArm 29.144652 -0.000000 51.265915
LeftHand 1.044394 -0.000000 -2.510618
LeftHandThumb1 -26.253704 0.000000 33.147579
RightShoulder -2.840800 -9.673987 5.188475
RightArm 17.688262 -32.006904 63.281178
RightForeArm -31.010080 0.000000 24.796412
RightHand 4.479950 0.000000 5.505500
RightHandThumb1 -24.326973 -0.000000 -32.862282
LeftUpLeg -55.279089 10.274801 -21.338559
LeftLeg 72.708449 -0.000000 -0.000000
LeftFoot -54.882022 18.881719 -15.921731
LeftToeBase 25.929294 -0.000000 -0.000000
RightUpLeg -19.938572 -42.026717 -40.415305
RightLeg -4.303467 -0.000000 0.000000
RightFoot 6.581025 -22.632710 16.224214
RightToeBase 31.847325 -0.000000 -0.000000
726
root 10.200348 27.929194 -17.640603 -162.366143 2.374679 -193.726133
Spine 2.506549 2.512559 -16.537082
Head -18.458351 -3.766713 2.007484
LeftShoulder -4.213117 -26.536291 -0.662479
LeftArm -16.805003 46.954372 -82.258759
LeftForeArm 29.145466 0.000000 51.403394
LeftHand 1.001525 -0.000000 -2.514914
LeftHandThumb1 -26.253704 0.000000 33.147579
RightShoulder -2.816711 -9.665099 5.155623
RightArm 17.672653 -32.015197 63.301008
RightForeArm -31.002565 -0.000000 24.819274
RightHand 4.473504 0.000000 5.515565
RightHandThumb1 -24.326973 -0.000000 -32.862282
LeftUpLeg -55.338609 10.258984 -21.368680
LeftLeg 72.715258 -0.000000 -0.000000
LeftFoot -54.843656 18.840947 -15.928264
LeftToeBase 25.913667 -0.000000 -0.000000
RightUpLeg -19.916316 -42.045281 -40.455374
RightLeg -4.322328 -0.000000 0.000000
RightFoot 6.582823 -22.554563 16.262131
RightToeBase 31.760300 -0.000000 -0.000000
727
root 10.199788 27.929663 -17.626736 -162.295998 2.367262 -193.734881
Spine 2.542171 2.552329 -16.532165
Head -18.596861 -3.746417 1.979402
LeftShoulder -4.214750 -26.538790 -0.629482
LeftArm -16.826173 46.976070 -82.273983
LeftForeArm 29.019533 -0.000000 51.511575
LeftHand 0.937477 -0.000000 -2.327548
LeftHandThumb1 -26.253704 0.000000 33.147579
RightShoulder -2.790904 -9.651035 5.118844
RightArm 17.652092 -32.021071 63.318767
RightForeArm -31.045378 -0.000000 24.849896
RightHand 4.551210 -0.000000 5.613890
RightHandThumb1 -24.326973 -0.000000 -32.862282
LeftUpLeg -55.436054 10.278668 -21.412514
LeftLeg 72.713457 -0.000000 -0.000000
LeftFoot -54.804264 18.786785 -15.906762
LeftToeBase 25.924839 -0.000000 -0.000000
RightUpLeg -19.977473 -42.046346 -40.434368
RightLeg -4.338442 -0.000000 0.000000
RightFoot 6.578792 -22.586540 16.284244
RightToeBase 31.776293 -0.000000 -0.000000
728
root 10.198033 27.929668 -17.615296 -162.233345 2.375131 -193.757511
Spine 2.571153 2.597616 -16.550808
Head -18.704641 -3.771568 1.953201
LeftShoulder -4.222331 -26.530463 -0.610928
LeftArm -16.822396 47.007304 -82.236444
LeftForeArm 28.993413 -0.000000 51.647954
LeftHand 0.910722 -0.000000 -2.243871
LeftHandThumb1 -26.253704 0.000000 33.147579
RightShoulder -2.776132 -9.657008 5.083694
RightArm 17.670346 -32.030351 63.330118
RightForeArm -31.072045 -0.000000 24.861532
RightHand 4.555317 0.000000 5.860099
RightHandThumb1 -24.326973 -0.000000 -32.862282
LeftUpLeg -55.521506 10.319030 -21.476561
LeftLeg 72.706306 -0.000000 -0.000000
LeftFoot -54.770988 18.757233 -15.865789
LeftToeBase 25.924365 -0.000000 -0.000000
RightUpLeg -20.034972 -42.055090 -40.428403
RightLeg -4.369516 -0.000000 0.000000
RightFoot 6.611931 -22.649056 16.468979
RightToeBase 31.464074 -0.000000 -0.000000
729
root 10.195889 27.928484 -17.604559 -162.174430 2.374884 -193.787087
Spine 2.603105 2.636582 -16.571856
Head -18.814157 -3.826009 1.932642
LeftShoulder -4.200632 -26.567089 -0.598604
LeftArm -16.908029 46.997582 -82.251754
LeftForeArm 28.951703 -0.000000 51.807149
LeftHand 0.893445 -0.000000 -2.206667
LeftHandThumb1 -26.253704 0.000000 33.147579
RightShoulder -2.775827 -9.670083 5.064593
RightArm 17.735928 -32.073800 63.299656
RightForeArm -31.009434 -0.000000 24.828187
RightHand 4.479876 0.000000 5.612639
RightHandThumb1 -24.326973 -0.000000 -32.862282
LeftUpLeg -55.599510 10.342223 -21.539162
LeftLeg 72.705352 -0.000000 -0.000000
LeftFoot -54.737264 18.711835 -15.816718
LeftToeBase 25.907406 -0.000000 -0.000000
RightUpLeg -20.089107 -42.076217 -40.426524
RightLeg -4.391755 -0.000000 0.000000
RightFoot 6.609617 -22.640996 16.415196
RightToeBase 31.559524 -0.000000 -0.000000
730
root 10.193513 27.926821 -17.591268 -162.107635 2.396342 -193.804989
Spine 2.628894 2.686055 -16.591393
Head -18.908696 -3.855460 1.916056
LeftShoulder -4.208027 -26.553822 -0.567189
LeftArm -16.879721 46.983753 -82.220629
LeftForeArm 28.913160 -0.000000 51.912593
LeftHand 0.934607 -0.000000 -2.155004
LeftHandThumb1 -26.253704 0.000000 33.147579
RightShoulder -2.719644 -9.698366 5.022504
RightArm 17.749871 -32.053776 63.313417
RightForeArm -31.017594 0.000000 24.857071
RightHand 4.384286 -0.000000 5.646107
RightHandThumb1 -24.326973 -0.000000 -32.862282
LeftUpLeg -55.699299 10.378747 -21.600786
LeftLeg 72.709333 -0.000000 -0.000000
LeftFoot -54.676090 18.691591 -15.759214
LeftToeBase 25.824153 -0.000000 -0.000000
RightUpLeg -20.181831 -42.064630 -40.411043
RightLeg -4.393409 -0.000000 0.000000
RightFoot 6.624362 -22.643328 16.385245
RightToeBase 31.576960 -0.000000 -0.000000
731
root 10.187854 27.923516 -17.583862 -162.064724 2.377507 -193.838249
Spine 2.680744 2.714862 -16.601592
Head -18.990680 -3.885534 1.889815
LeftShoulder -4.221360 -26.544323 -0.546827
LeftArm -16.852039 46.992749 -82.203458
LeftForeArm 28.853685 -0.000000 51.992130
LeftHand 0.987340 0.000000 -2.074887
LeftHandThumb1 -26.253704 0.000000 33.147579
RightShoulder -2.724017 -9.731521 4.996280
RightArm 17.822194 -32.087309 63.269726
RightForeArm -30.934953 -0.000000 24.834181
RightHand 4.373874 -0.000000 5.614071
RightHandThumb1 -24.326973 -0.000000 -32.862282
LeftUpLeg -55.755584 10.366974 -21.659875
LeftLeg 72.719255 -0.000000 -0.000000
LeftFoot -54.684092 18.644917 -15.759388
LeftToeBase 25.913665 -0.000000 -0.000000
RightUpLeg -20.194863 -42.112733 -40.431011
RightLeg -4.420386 -0.000000 0.000000
RightFoot 6.674037 -22.628135 16.199138
RightToeBase 31.649000 -0.000000 -0.000000
732
root 10.182151 27.919232 -17.574133 -162.008918 2.391942 -193.869298
Spine 2.712808 2.780788 -16.623078
Head -19.071706 -3.911011 1.870402
LeftShoulder -4.217388 -26.553114 -0.522738
LeftArm -16.848281 47.014594 -82.204648
LeftForeArm 28.796106 -0.000000 52.089346
LeftHand 0.963303 -0.000000 -2.043761
LeftHandThumb1 -26.253704 0.000000 33.147579
RightShoulder -2.716743 -9.734371 4.956172
RightArm 17.834425 -32.098092 63.279938
RightForeArm -30.875334 -0.000000 24.840664
RightHand 4.345243 -0.000000 5.595179
RightHandThumb1 -24.326973 -0.000000 -32.862282
LeftUpLeg -55.836393 10.367089 -21.724461
LeftLeg 72.732053 -0.000000 -0.000000
LeftFoot -54.668246 18.644230 -15.738802
LeftToeBase 25.907459 -0.000000 -0.000000
RightUpLeg -20.273080 -42.161007 -40.418389
RightLeg -4.439113 -0.000000 0.000000
RightFoot 6.714418 -22.620643 16.258141
RightToeBase 31.461310 -0.000000 -0.000000
